:SAMPLES-PER-SECOND 24
:FULLY-SPECIFIED
:DEGREES
94
root  -1.91845 41.5768 24.3767 6.79401 -60.0852 1.47107
RightUpLeg  -8.95883 6.04821 -9.62813
RightLeg  21.4285 -6.53829 -3.01214
RightFoot  -0.490787 -0.648573 6.71376
RightToes  -2.08645e-008 3.77894e-005 6.81332e-007
Spine  -4.98908 2.99558 2.78996
Spine1  7.20325 3.91137 -4.18029
HEad  -34.2129 39.4041 -18.3375
LeftShoulder1  6.20838 -12.0649 -33.8713
LeftArm  -3.16288 37.8814 -34.1476
LeftForeArm  169.522 -63.0798 -160.548
LeftHand  -0.27013 -2.4833 4.19389
RightShoulder  3.9609 6.7544 32.7262
RightArm  16.5315 -27.3816 30.4418
RightForeArm  149.201 73.4321 144.315
RightHand  -0.115739 7.22063 -1.42353
LeftUpLeg  -14.835 4.80894 12.3723
LeftLeg  15.8206 4.74315 1.90508
LeftFoot  15.9366 3.20529 -13.5315
LeftToes  1.24767e-006 1.47042e-008 1.32732e-009
95
root  -1.67707 40.619 24.6751 6.073 -58.726 1.52858
RightUpLeg  -8.23328 6.3018 -9.23075
RightLeg  24.6911 -6.61128 -3.52159
RightFoot  -6.69733 -0.389327 8.54635
RightToes  -2.08645e-008 3.77894e-005 6.81332e-007
Spine  -4.28265 2.26493 3.03801
Spine1  7.19741 3.11766 -4.20974
HEad  -33.5411 39.3037 -18.5228
LeftShoulder1  6.1172 -11.9617 -33.5541
LeftArm  0.53737 33.3179 -30.5763
LeftForeArm  167.446 -64.6811 -158.982
LeftHand  -0.208835 -2.73715 3.20744
RightShoulder  3.89937 6.68955 32.368
RightArm  16.0202 -27.2109 29.2621
RightForeArm  149.185 73.1127 145.007
RightHand  -0.141948 7.1073 -1.67836
LeftUpLeg  -16.2195 -1.09265 12.4222
LeftLeg  20.528 6.1817 2.90779
LeftFoot  10.5445 2.86598 -15.0601
LeftToes  1.24767e-006 1.47042e-008 1.32732e-009
96
root  -1.42038 39.1605 24.9077 4.74593 -58.6255 2.31422
RightUpLeg  -8.33981 8.19945 -9.65819
RightLeg  28.8618 -8.25867 -5.12818
RightFoot  -15.6122 0.312994 11.2108
RightToes  -2.08645e-008 3.77894e-005 6.81332e-007
Spine  -2.45286 2.39692 2.7722
Spine1  6.01552 3.19739 -4.12982
HEad  -33.3825 39.0753 -18.9249
LeftShoulder1  6.36578 -12.1411 -34.6754
LeftArm  2.76736 25.9798 -26.1093
LeftForeArm  165.938 -67.1043 -156.416
LeftHand  -0.289939 -2.87924 4.30003
RightShoulder  3.91751 6.69923 32.5099
RightArm  14.5874 -26.5384 27.6387
RightForeArm  146.333 74.1905 142.056
RightHand  -0.31402 7.61317 -3.16439
LeftUpLeg  -17.718 -2.55645 11.9255
LeftLeg  27.323 5.71289 3.54044
LeftFoot  -2.07342 1.52176 -18.4844
LeftToes  1.24767e-006 1.47042e-008 1.32732e-009
97
root  -1.1745 37.8819 25.0583 3.08044 -58.9395 3.19571
RightUpLeg  -8.88885 8.99931 -10.4663
RightLeg  33.2521 -9.27048 -6.71647
RightFoot  -23.2046 0.996268 11.0962
RightToes  -2.08645e-008 3.77894e-005 6.81332e-007
Spine  -1.52789 2.74464 3.23007
Spine1  7.09632 3.82171 -5.34042
HEad  -35.3218 38.7526 -19.5314
LeftShoulder1  6.54679 -12.2398 -35.5555
LeftArm  2.34095 17.1388 -23.5344
LeftForeArm  167.049 -70.1773 -152.737
LeftHand  -0.459115 -2.49191 6.98098
RightShoulder  3.83373 6.57499 32.1508
RightArm  11.654 -24.8917 28.5029
RightForeArm  138.186 76.8406 132.306
RightHand  -0.534364 7.08761 -5.31266
LeftUpLeg  -18.9141 -2.7301 11.1247
LeftLeg  33.0582 5.818 4.43852
LeftFoot  -11.5038 0.048732 -18.8211
LeftToes  1.24767e-006 1.47042e-008 1.32732e-009
98
root  -1.00302 37.5345 25.2442 1.65495 -57.6732 3.21288
RightUpLeg  -7.63132 7.3781 -10.8625
RightLeg  34.7081 -8.39501 -6.4527
RightFoot  -25.095 1.18421 11.1966
RightToes  -2.08645e-008 3.77894e-005 6.81332e-007
Spine  -1.29668 2.38504 4.14311
Spine1  9.18629 3.57474 -5.61658
HEad  -37.0903 38.2397 -20.1652
LeftShoulder1  6.81429 -12.5157 -36.4791
LeftArm  -0.194631 12.5701 -24.283
LeftForeArm  167.735 -72.245 -149.629
LeftHand  -0.526764 -2.23869 8.21866
RightShoulder  3.80018 6.50466 32.0833
RightArm  8.65667 -25.0526 29.8854
RightForeArm  134.085 78.0097 126.294
RightHand  -0.44162 7.35393 -4.3809
LeftUpLeg  -18.3036 -6.17841 10.29
LeftLeg  34.3956 7.99244 6.18719
LeftFoot  -12.8722 -0.159848 -17.2503
LeftToes  1.24767e-006 1.47042e-008 1.32732e-009
99
root  -1.09397 38.383 25.3441 2.56171 -56.3129 1.99423
RightUpLeg  -6.28569 5.73863 -10.1519
RightLeg  32.1234 -7.861 -5.53047
RightFoot  -19.7332 0.769489 12.504
RightToes  -2.08645e-008 3.77894e-005 6.81332e-007
Spine  -3.21829 1.97385 4.34116
Spine1  10.7121 2.71402 -3.81731
HEad  -35.6818 38.5825 -20.0774
LeftShoulder1  6.95509 -12.6663 -36.9457
LeftArm  -1.63053 15.2567 -28.2941
LeftForeArm  166.262 -71.8878 -150
LeftHand  -0.524405 -2.09402 8.33181
RightShoulder  3.87898 6.58749 32.554
RightArm  7.72364 -27.6744 30.8088
RightForeArm  138.84 77.4461 130.049
RightHand  -0.426149 7.64627 -4.14923
LeftUpLeg  -16.0173 -7.52098 10.7204
LeftLeg  29.2113 9.15102 5.79303
LeftFoot  -8.8057 0.43654 -17.2122
LeftToes  1.24767e-006 1.47042e-008 1.32732e-009
100
root  -1.39855 39.9208 25.1837 4.11209 -54.997 1.75566
RightUpLeg  -6.03481 3.90937 -9.42426
RightLeg  27.3987 -8.37895 -4.91301
RightFoot  -10.0169 -0.187926 10.3281
RightToes  -2.08645e-008 3.77894e-005 6.81332e-007
Spine  -5.71616 1.61398 2.01465
Spine1  10.2865 1.56747 -0.376195
HEad  -31.2253 39.8204 -18.2172
LeftShoulder1  6.87168 -12.5537 -36.734
LeftArm  -0.597182 20.9723 -32.2015
LeftForeArm  164.798 -70.5626 -151.886
LeftHand  -0.500129 -2.03008 8.01889
RightShoulder  3.93361 6.63388 32.9174
RightArm  8.36867 -31.2028 31.9251
RightForeArm  143.515 76.8623 133.485
RightHand  -0.349073 8.24978 -3.34249
LeftUpLeg  -13.8108 -3.02266 11.5434
LeftLeg  19.5683 4.94368 2.2785
LeftFoot  1.64962 1.98974 -17.4502
LeftToes  1.24767e-006 1.47042e-008 1.32732e-009
